<svg width="263" height="96" viewBox="0 0 263 96" fill="none" xmlns="http://www.w3.org/2000/svg">
<path fill-rule="evenodd" clip-rule="evenodd" d="M5.90444 77.3519L8.19357 95.9982H88.3233L85.7043 74.6463H48.3384L48.0152 71.9973L82.4256 47.953L80.1264 29.2667H0L2.62234 50.622H40.0449L40.3748 53.291L5.90444 77.3519Z" fill="#1A0826"/>
<path fill-rule="evenodd" clip-rule="evenodd" d="M89.4375 29.2655L97.6311 95.997H177.824L169.627 29.2655H89.4375Z" fill="#AA8FFF"/>
<path fill-rule="evenodd" clip-rule="evenodd" d="M97.2026 20.4106C102.451 25.0789 110.021 25.0789 114.11 20.4106C118.201 15.7424 117.262 8.17192 112.014 3.50368C106.769 -1.16789 99.1985 -1.16789 95.1067 3.50368C91.0182 8.17192 91.9546 15.7424 97.2026 20.4106Z" fill="#1A0826"/>
<path fill-rule="evenodd" clip-rule="evenodd" d="M232.281 63.9422L207.184 63.9689L205.218 47.9549L230.445 47.9749C236.376 48.0449 239.415 51.387 239.905 55.9586C240.218 58.9008 238.872 63.9422 232.281 63.9422ZM261.923 53.2929C260.071 38.2919 248.288 29.202 232.274 29.265H178.935L187.128 96.0001H211.122L209.48 82.6518H234.873C254.859 82.6518 264.006 70.1965 261.923 53.2929Z" fill="#1A0826"/>
</svg>
